<svg width="20" height="20" viewBox="0 0 20 20" fill="none" xmlns="http://www.w3.org/2000/svg">
<path d="M7.22656 11.9417C7.22656 13.0167 8.05156 13.8834 9.07656 13.8834H11.1682C12.0599 13.8834 12.7849 13.125 12.7849 12.1917C12.7849 11.175 12.3432 10.8167 11.6849 10.5834L8.32656 9.4167C7.66823 9.18337 7.22656 8.82503 7.22656 7.80837C7.22656 6.87503 7.95156 6.1167 8.84323 6.1167H10.9349C11.9599 6.1167 12.7849 6.98337 12.7849 8.05837" stroke="#404040" stroke-width="1.5" stroke-linecap="round" stroke-linejoin="round"/>
<path d="M10 5V15" stroke="#292D32" stroke-width="1.5" stroke-linecap="round" stroke-linejoin="round"/>
<path d="M12.5003 18.3332H7.50033C3.33366 18.3332 1.66699 16.6665 1.66699 12.4998V7.49984C1.66699 3.33317 3.33366 1.6665 7.50033 1.6665H12.5003C16.667 1.6665 18.3337 3.33317 18.3337 7.49984V12.4998C18.3337 16.6665 16.667 18.3332 12.5003 18.3332Z" stroke="#404040" stroke-width="1.5" stroke-linecap="round" stroke-linejoin="round"/>
</svg>
